<svg id="Logos" xmlns="http://www.w3.org/2000/svg" viewBox="0 0 142.6 89.3"><defs><style>.cls-1{fill:#903476;stroke-width:4px;}.cls-1,.cls-5{stroke:#fff;}.cls-1,.cls-4,.cls-5,.cls-6{stroke-miterlimit:10;}.cls-2{fill:#37b34a;}.cls-3{fill:#231f20;}.cls-4{fill:#90278e;stroke:#231f20;stroke-width:2px;}.cls-5{font-size:45px;fill:#009345;}.cls-5,.cls-6{stroke-width:0.25px;font-family:Buttercake;}.cls-6{font-size:36px;fill:#fff;stroke:#37b34a;}.cls-7{letter-spacing:0.03em;}</style></defs><title>5vine_logo</title><g id="_5_vines" data-name="5 vines"><rect class="cls-1" x="2" y="2" width="138.6" height="85.31" rx="11.1"/><path class="cls-2" d="M87.9,33.3c2.3-2.5,4.7-5.1,7.8-6.7s6.8-2.1,9.8-.4c.4,2.1-2.9,3.8-2.2,5.9s2.6,1.6,4.3,1.9c4.6.7,7.6,5,10.1,8.9-.6,1.4-3.7.4-3.9,2s.3,1,.6,1.4a15.5,15.5,0,0,1,3.4,10.6c-1.2-1.5-3.8-.3-4.5,1.5s0,3.8.2,5.7c.5,4.7-1.2,9.3-2.9,13.7a28.7,28.7,0,0,0-4.3-12.7c-.4-.7-1.2-1.6-2-1.3a1.9,1.9,0,0,0-1,.8l-6,6.9c-1.7-3.5-3.6-6.9-5.6-10.2L86,64.9,84.7,54.6c-.1-.5-.2-1.1-.6-1.3s-1.1,0-1.6.2l-4.8,2.7.5-8.8c.2-4.1,1.2-9.2,5.1-10.2" transform="translate(0 -6.7)"/><path class="cls-3" d="M88.3,33.7c4.1-4.4,10.4-10.4,16.9-7l-.3-.5c.2,1.9-2,3.1-2.3,4.9s1.5,2.9,3.1,3.2a19.4,19.4,0,0,1,3.3.7,11.2,11.2,0,0,1,3.3,2,28.6,28.6,0,0,1,4.8,6.2v-.6c-.5.9-2.2.5-3.1,1a1.7,1.7,0,0,0-.5,2.5c.5.8,1.1,1.4,1.5,2.2a13.8,13.8,0,0,1,1.4,2.7,16.8,16.8,0,0,1,.8,5.9l1-.5a2.9,2.9,0,0,0-3.8-.2c-1.8,1.1-2.1,3.1-1.9,5s.4,2.6.5,3.8a22.8,22.8,0,0,1-.4,4.5,45,45,0,0,1-2.6,8.1l1.3.2a34.2,34.2,0,0,0-1.6-7.2,25.6,25.6,0,0,0-3.2-6.4,2.9,2.9,0,0,0-1.9-1.1c-.9,0-1.5.7-2.1,1.4l-5.6,6.6h1c-1.8-3.5-3.6-6.9-5.7-10.2a.5.5,0,0,0-.8-.2l-5.7,3.6,1,.5-.8-6.1-.4-3.2a7.1,7.1,0,0,0-.4-2.1,1.8,1.8,0,0,0-2.5-.7,52.9,52.9,0,0,0-5.2,2.9l.9.5a109.2,109.2,0,0,1,.8-11.5c.4-2.8,1.4-6,4.4-6.9.8-.2.4-1.4-.3-1.2-3.1.9-4.5,3.8-5.2,6.7s-.7,8.7-.9,12.9a.6.6,0,0,0,.9.5l3.4-1.9a9.3,9.3,0,0,0,1-.5c.4-.2,1.2-.5,1.6-.2s.3,1.9.3,2.2l1.1,8.6a.7.7,0,0,0,1,.5L92,61.8l-.8-.2c2,3.3,3.9,6.7,5.6,10.2.1.4.7.4,1,.1l4-4.7a27.6,27.6,0,0,1,2.1-2.5c1.3-.9,1.9.7,2.5,1.6A29.2,29.2,0,0,1,110,77.8a.6.6,0,0,0,1.2.1c1.5-3.9,3.1-7.9,3-12.2,0-2-.7-4-.5-6s2.1-4,3.6-2.4a.6.6,0,0,0,1.1-.4,16.1,16.1,0,0,0-2.4-9.5c-.2-.3-1.8-2.2-1.5-2.6s1-.3,1.4-.4a2.7,2.7,0,0,0,2.3-1.2.6.6,0,0,0,0-.6,23.1,23.1,0,0,0-6-7.2,9.5,9.5,0,0,0-3.9-1.9c-1.2-.3-3.3-.1-4.2-1.2s.6-2.6,1.2-3.5,1.3-2.2.7-3a3.7,3.7,0,0,0-1.8-.8,5.7,5.7,0,0,0-2.2-.4,12.7,12.7,0,0,0-5.1.8c-3.8,1.4-6.7,4.5-9.5,7.4-.5.6.3,1.5.9.9Z" transform="translate(0 -6.7)"/><path class="cls-3" d="M65.4,16.8A128.2,128.2,0,0,1,81,27.2,125.6,125.6,0,0,1,94.9,39.6,81,81,0,0,1,106.6,54a43.1,43.1,0,0,1,4.2,8.3,23.4,23.4,0,0,1,.9,4.6,7.9,7.9,0,0,1-.9,4.5,7.8,7.8,0,0,0,.6-4.5,22,22,0,0,0-1.2-4.4,38.1,38.1,0,0,0-4.6-7.8A86.9,86.9,0,0,0,93.2,41.4,129.2,129.2,0,0,0,78.8,30.2a135.6,135.6,0,0,0-15.7-9Z" transform="translate(0 -6.7)"/><circle class="cls-4" cx="81.1" cy="33.7" r="7.2"/><circle class="cls-4" cx="91.3" cy="21.3" r="6.5"/><line class="cls-3" x1="93.6" y1="37" x2="88.7" y2="44.8"/><polygon class="cls-3" points="94.1 37.2 88.7 44.8 93.2 36.7 94.1 37.2"/><line class="cls-3" x1="97.5" y1="39.9" x2="92.9" y2="47.9"/><polygon class="cls-3" points="97.9 40.2 92.9 47.9 97.1 39.7 97.9 40.2"/><line class="cls-3" x1="100.1" y1="44.8" x2="95.4" y2="52.8"/><polygon class="cls-3" points="100.5 45 95.4 52.8 99.6 44.5 100.5 45"/><line class="cls-3" x1="103.1" y1="48.8" x2="98.5" y2="56.8"/><polygon class="cls-3" points="103.6 49 98.5 56.8 102.7 48.5 103.6 49"/><line class="cls-3" x1="101.7" y1="37.5" x2="110.9" y2="38.8"/><polygon class="cls-3" points="101.8 37.1 110.9 38.8 101.7 38 101.8 37.1"/><line class="cls-3" x1="105.3" y1="42.7" x2="114.5" y2="43.9"/><polygon class="cls-3" points="105.4 42.2 114.5 43.9 105.2 43.2 105.4 42.2"/><line class="cls-3" x1="98.5" y1="34.5" x2="107.8" y2="34.1"/><polygon class="cls-3" points="98.5 34 107.8 34.1 98.5 35 98.5 34"/></g><text class="cls-5" transform="translate(36.1 52.1) scale(1.02 1)">5</text><text class="cls-6" transform="translate(49.1 71.3) scale(0.88 1)"><tspan class="cls-7">V</tspan><tspan x="15.8" y="0">ines</tspan></text></svg>