<svg xmlns="http://www.w3.org/2000/svg" viewBox="0 0 64 64"><defs><style>.cls-1{fill:#231f20;}</style></defs><title>about_icon</title><g id="Layer_2" data-name="Layer 2"><g id="Layer_1-2" data-name="Layer 1"><g id="Info"><path class="cls-1" d="M54.63,9.37a32,32,0,1,0,0,45.25A31.9,31.9,0,0,0,54.63,9.37ZM51.09,51.09A27,27,0,0,1,12.91,12.91a27,27,0,0,1,38.18,0h0a27,27,0,0,1,0,38.18Z"/><path class="cls-1" d="M32,15a4.68,4.68,0,1,0,4.68,4.68A4.68,4.68,0,0,0,32,15Z"/><rect class="cls-1" x="27.73" y="27.88" width="8.54" height="21.12"/></g></g></g></svg>