<svg id="Logos" xmlns="http://www.w3.org/2000/svg" viewBox="0 0 142.6 89.3"><defs><style>.cls-1{fill:#b2b05b;stroke-width:4px;}.cls-1,.cls-7{stroke:#fff;stroke-miterlimit:10;}.cls-2{font-size:16px;font-family:SignPainter-HouseScript, SignPainter;}.cls-2,.cls-6{fill:#fff;}.cls-3{letter-spacing:0em;}.cls-4{letter-spacing:-0.02em;}.cls-5{font-size:12px;}.cls-7{fill:none;}</style></defs><title>ceviche_logo</title><g id="Ceviche_Restaurant" data-name="Ceviche Restaurant"><rect class="cls-1" x="2" y="2" width="138.6" height="85.31" rx="11.3"/><text id="title" class="cls-2" transform="matrix(1, -0.03, 0.03, 1, 51.41, 50.1)">C<tspan class="cls-3" x="7.4" y="0">e</tspan><tspan class="cls-4" x="12.4" y="0">v</tspan><tspan x="17" y="0">iche</tspan><tspan class="cls-5" x="36.4" y="0"> </tspan></text><path id="fork-head" class="cls-6" d="M42.8,48.8V46.3l-4.3.3s-2.2-3.1-3.5-3.2a21.4,21.4,0,0,0-3.2.2s-9.3,1.9-10,2.9h.1l10.4-1.1v1L22,47.7s-.5.3,0,.6l10.3-.7s.4.9,0,1.1L22,49.4a.3.3,0,0,0-.2.4H32.3s.3.2.3.4a.6.6,0,0,1-.2.6l-10.5.3s-.1.4.6.6l10,.9,2.9-.2s1.2-.5,3-3.3Z"/><path id="fork-end" class="cls-6" d="M99.4,48.7l-.3-6.4,18-2.3s3.7,0,4.1,3.5a4.8,4.8,0,0,1-2.2,5S103.3,48.9,99.4,48.7Z"/><path id="underline" class="cls-7" d="M44.4,52.5c9-1,18.9-1.7,29.6-2,8.5-.2,16.6,0,24.2.4"/></g></svg>