<svg xmlns="http://www.w3.org/2000/svg" viewBox="0 0 476.4 648.68"><defs><style>.cls-1{fill:#fff;}</style></defs><title>reservations_icon</title><g id="Layer_2" data-name="Layer 2"><g id="Capa_1" data-name="Capa 1"><path class="cls-1" d="M476.32,564.58q-2.06,14-14.88,21.24L361.2,641.53a46,46,0,0,1-16.66,6.12,59.42,59.42,0,0,1-18.28.57c-.39-.11-1.6-.34-3.62-.7s-4.6-1-7.74-1.85q-11.2-3.17-35.16-14t-56-36.1q-32-25.21-69.49-68.2t-74.58-110q-29.8-52.24-46.45-97T9,239.44Q1.36,203.29.32,175.34T1.57,128q2.26-19.38,5.85-29.82t3.9-11.62a59.85,59.85,0,0,1,10-15.3,45.87,45.87,0,0,1,13.91-11L135.67,3.94Q146.23-2,156.84,1a22.85,22.85,0,0,1,12.31,8.23A42.68,42.68,0,0,1,176.09,23l29.38,137.33a29.83,29.83,0,0,1-2.86,21.45,38.15,38.15,0,0,1-15.32,16l-37,20.74a10.18,10.18,0,0,0-3.14,3.25,14.94,14.94,0,0,0-2.13,4.17q-1.12,13,2.65,31.26,3.07,16.14,12.09,40.6t28.65,58.61q18.87,34.56,35.27,55.39t28.24,31.79q11.86,11,18.81,14.5l6.95,3.55a14.26,14.26,0,0,0,4.07.19,10.15,10.15,0,0,0,4.42-1l43.19-24.72a37.53,37.53,0,0,1,27.4-2.46q10,2.82,14.91,8l.59.17L467.06,541Q477.28,552.14,476.32,564.58Z"/></g></g></svg>