<svg id="Layer_1" data-name="Layer 1" xmlns="http://www.w3.org/2000/svg" viewBox="0 0 493.3 311.6"><defs><style>.cls-1{fill:#fff;}.cls-2{fill:none;}</style></defs><title>specials_icon</title><path class="cls-1" d="M54.4,235.7H436.6s0-168.3-181.8-189.4V37.1s23.6-1.7,22.7-19.4S246.7,0,246.7,0,222-1.6,215.2,16.9s23.6,21.9,23.6,21.9V48S78.8,46.3,54.4,235.7Z"/><path class="cls-1" d="M85.9,300H404.6s6.8.6,32-31.4h29.8s18.4-4.5,26.9-15.2H0s1.1,9,28.1,14.6l202.6.6v8.1H54.4S64,296.1,85.9,300Z"/><path class="cls-2" d="M135.8,211.9s-2.2-72.4,76.3-126.3c0,0-20.2-2.2-40.9,19.1,0,0-46.1,39.8-51.7,107.2Z"/><path class="cls-2" d="M103.5,211.9s5.9-81.6,84.5-135.5c0,0-32.9,7-53.6,28.3,0,0-46.1,39.8-51.7,107.2Z"/><path class="cls-2" d="M238.5,36s-21.6-14.4,7-26.7c0,0-10.5-2.7-20.7,6.2,0,0-3.7,10.9,1.6,15.1C226.4,30.6,231.5,38.2,238.5,36Z"/><circle class="cls-2" cx="119.5" cy="301.5" r="10.1"/></svg>