<svg id="Layer_1" data-name="Layer 1" xmlns="http://www.w3.org/2000/svg" viewBox="0 0 621 349.8"><defs><style>.cls-1{fill:#51bdd6;stroke:#fff;stroke-width:18px;}.cls-1,.cls-2,.cls-3{stroke-miterlimit:10;}.cls-2{fill:#a67c52;stroke:#000;stroke-width:10px;}.cls-3{fill:red;stroke:#ff0;stroke-width:6px;}.cls-4{font-size:120px;fill:#fff;font-family:SignPainter-HouseScript, SignPainter;}.cls-5,.cls-6,.cls-7{font-size:60px;}.cls-5{letter-spacing:0em;}.cls-6{letter-spacing:0em;}</style></defs><title>stone</title><g id="Heartstone_Restaurant" data-name="Heartstone Restaurant"><rect class="cls-1" x="9" y="9" width="603" height="327" rx="46.3"/></g><polygon class="cls-2" points="251.9 140.7 251.9 129 340.3 129 340.3 140.7 256.2 140.7 251.9 140.7"/><polygon class="cls-2" points="252 212.5 252 200.8 340.5 200.8 340.5 212.5 256.3 212.5 252 212.5"/><polygon class="cls-2" points="255.3 201 255.3 141.7 337.6 141.7 337.6 201 259.3 201 255.3 201"/><path class="cls-3" d="M273.8,188.4s-9.3-9.5,4.2-30.2c0,0,5.9,3.2,6.8,9.5,0,0,4.2-11.9,10.9-16.7,0,0,6.8,4.8,11.9,15.1,0,0,2.5-5.5,5.9-7.1,0,0,13.5,18.3,6.8,28.6S273.8,188.4,273.8,188.4Z"/><text class="cls-4" transform="translate(132.1 115.6)">H<tspan class="cls-5" x="58.6" y="0">e</tspan><tspan class="cls-6" x="77.8" y="0">ar</tspan><tspan class="cls-7" x="121.4" y="0">th</tspan></text><text class="cls-4" transform="translate(316 291.1)">S<tspan class="cls-7" x="53.3" y="0">tone</tspan></text></svg>